<svg xmlns="http://www.w3.org/2000/svg" height="20" viewBox="0 -960 960 960" width="20"><path d="M456.65-178.154q-29.558 0-54.621-16.397-25.064-16.398-36.26-43.91-2.115-5.5 2.329-10.751 4.445-5.25 9.754-5.25 6.533 0 9.725 1.02 3.192 1.019 6.962 9.904 9.396 16.884 25.668 26.673 16.272 9.788 36.293 9.788 27.929 0 48.272-20.069t20.343-48.546q0-28.477-20.343-48.546-20.343-20.07-48.058-20.07H135.077q-6.108 0-10.189-4.296-4.08-4.297-4.08-9.955 0-5.657 4.08-10.165 4.081-4.507 10.189-4.507h321.512q40.167 0 68.809 28.574 28.641 28.573 28.641 69.173 0 40.599-28.641 68.965-28.642 28.365-68.748 28.365ZM135.077-562.769q-6.108 0-10.189-4.297-4.08-4.297-4.08-9.954 0-5.658 4.08-10.165 4.081-4.508 10.189-4.508h499.386q32.915 0 56.861-23.85 23.945-23.85 23.945-56.824 0-32.973-23.884-56.764-23.884-23.792-56.883-23.792-24.519 0-44.299 14.009-19.78 14.01-29.318 35.976-3.154 7.938-8.589 8.669-5.434.731-11.488.731-6.559 0-8.914-6.077-2.356-6.077.837-16.154 10.615-28.693 39.628-47.385 29.014-18.692 62.619-18.692 45.587 0 77.401 32.006 31.813 32.007 31.813 77.866t-31.908 77.532q-31.909 31.673-77.605 31.673H135.077ZM769.308-268.5q-9.27 1.269-14.654-2.728-5.385-3.998-5.385-9.268 0-6.121.923-10.659.923-4.537 8.116-6.143 24.346-8.3 38.346-28.907 14-20.606 14-47.026 0-33.109-23.946-56.862-23.945-23.753-56.67-23.753H135.077q-6.108 0-10.189-4.297-4.08-4.296-4.08-9.954t4.08-10.165q4.081-4.507 10.189-4.507h595.017q45.665 0 77.574 31.841t31.909 77.466q0 37.929-18.869 66.989-18.868 29.061-51.4 37.973Z"/></svg>