<svg xmlns="http://www.w3.org/2000/svg" height="20" viewBox="0 -960 960 960" width="20"><path d="M242.423-219.271q-69.584 0-117.964-48.871-48.38-48.871-48.38-118.627 0-69.615 51.595-119.884 51.597-50.269 121.904-47.615 15.855-81.036 80.007-133.749Q393.736-740.729 480-740.729q91.964 0 160.251 62.115 68.286 62.115 77.286 151.422v22.732h12.309q62.615-5.308 108.345 37.287 45.731 42.596 45.731 105.058 0 59.483-41.625 101.164-41.624 41.68-101.528 41.68H242.423Zm0-47.96H740.8q39.508 0 67.335-27.687 27.827-27.688 27.827-67.229t-27.708-67.132q-27.707-27.592-67.283-27.592h-65.394l-6-63.252q-7-73.017-61.282-122.831-54.281-49.815-128.262-49.815-62.98 0-113.267 37.791t-67.287 99.786l-14 49-50.928 3q-47.628 3-79.07 36.692-31.443 33.692-31.443 81.288 0 49.597 34.443 83.789 34.442 34.192 83.942 34.192ZM480-480Z"/></svg>