<svg xmlns="http://www.w3.org/2000/svg" height="20" viewBox="0 -960 960 960" width="20"><path d="M568.314-283.809q14.954 0 25.512-10.468 10.557-10.468 10.557-25.423 0-14.954-10.507-25.512-10.508-10.557-25.519-10.557t-25.472 10.508q-10.462 10.507-10.462 25.518 0 15.011 10.468 25.473 10.468 10.461 25.423 10.461Zm-199.139-14.115q7.467 7.423 17.368 7.423t17.418-7.407l186.115-186.036q7.423-7.376 7.423-17.406 0-10.031-7.423-17.611-7.422-7.423-16.743-7.423-9.32 0-16.399 7.423L369.282-331.128q-7.666 7.474-7.666 16.795 0 9.32 7.559 16.409ZM391.7-460.423q14.954 0 25.512-10.468 10.557-10.468 10.557-25.423 0-14.954-10.508-25.512-10.507-10.557-25.518-10.557-15.011 0-25.473 10.507-10.461 10.508-10.461 25.519t10.468 25.472q10.468 10.462 25.423 10.462Zm88.248 340.383q-119.37 0-203.639-84.19-84.269-84.191-84.269-203.724 0-56.365 25.914-112.183 25.914-55.818 64.477-107.494 38.563-51.675 83.528-96.976 44.964-45.3 82.618-80.122 7.423-5.923 15.126-9.173 7.703-3.25 16.32-3.25 8.618 0 15.797 3.25 7.18 3.25 14.475 10.173 37.139 35.052 81.749 80.161 44.609 45.108 83.878 96.886 39.269 51.777 65.654 107.707 26.384 55.93 26.384 111.021 0 119.533-84.32 203.724-84.321 84.19-203.692 84.19ZM480-168q100 0 170-70t70-169.867Q720-476 666-557q-54-81-186-212-132 131-186 212t-54 149.133Q240-308 310-238q70 70 170 70Zm0-308.923Z"/></svg>